<svg height="256" viewBox="0 0 256 256" width="256" xmlns="http://www.w3.org/2000/svg"><rect fill="#11161f" height="256" rx="44" stroke="#232c3b" stroke-width="2" width="256"/><circle cx="128" cy="128" fill="none" r="104" stroke="#232c3b" stroke-width="2.5"/><circle cx="128" cy="128" fill="none" r="86" stroke="#2c3648" stroke-width="1.5"/><g stroke="#61708a" stroke-linecap="round" stroke-width="3"><path d="m128 16v16"/><path d="m128 224v16"/><path d="m16 128h16"/><path d="m224 128h16"/></g><g fill="#2c3648"><path d="m128 128 68-8 14 8-14 8z"/><path d="m128 128-8 68 8 14 8-14z"/><path d="m128 128-68-8-14 8 14 8z"/></g><path d="m128 128-8-68 8-14 8 14z" fill="#3987e5"/><g fill="#9cc4f5" transform="translate(128 66)"><path d="m0-20 7 20-7 20-7-20z"/><path d="m-20 0 20-7 20 7-20 7z"/></g><circle cx="128" cy="128" fill="#e8edf5" r="6"/></svg>