<svg height="320" viewBox="0 0 900 320" width="900" xmlns="http://www.w3.org/2000/svg" xmlns:xlink="http://www.w3.org/1999/xlink"><radialGradient id="a" cx="100%" cy="0%" r="120%"><stop offset="0" stop-color="#161c27"/><stop offset=".55" stop-color="#11161f"/></radialGradient><filter id="b" height="140%" width="140%" x="-20%" y="-20%"><feGaussianBlur in="SourceAlpha" stdDeviation="4"/><feOffset dx="0" dy="6" result="off"/><feComponentTransfer><feFuncA slope="0.55" type="linear"/></feComponentTransfer><feMerge><feMergeNode/><feMergeNode in="SourceGraphic"/></feMerge></filter><rect fill="url(#a)" height="320" rx="14" stroke="#232c3b" width="900"/><text fill="#61708a" font-family="ui-sans-serif,-apple-system,BlinkMacSystemFont,'Segoe UI',Roboto,'Helvetica Neue',sans-serif" font-size="11.5" font-weight="600" letter-spacing="1.6" x="28" y="34">FORTY FILES, ONE RULE TO CHECK</text><text fill="#e8edf5" font-family="ui-sans-serif,-apple-system,BlinkMacSystemFont,'Segoe UI',Roboto,'Helvetica Neue',sans-serif" font-size="21" font-weight="700" x="28" y="62">Send forty gatherers, not one thread.</text><circle cx="120" cy="120" fill="#3987e5" r="16" visibility="hidden"/><text fill="#3987e5" font-family="ui-sans-serif,-apple-system,BlinkMacSystemFont,'Segoe UI',Roboto,'Helvetica Neue',sans-serif" font-size="14" font-weight="700" text-anchor="middle" x="120" y="158">agent</text><path d="m132 120 88 80" opacity=".5" stroke="#3a465c"/><circle cx="220" cy="200" fill="#3987e5" opacity=".8" r="4.5"/><path d="m132 120 104 96.74966" opacity=".5" stroke="#3a465c"/><circle cx="236" cy="216.74966" fill="#3987e5" opacity=".8" r="4.5"/><path d="m132 120 120 105.621693" opacity=".5" stroke="#3a465c"/><circle cx="252" cy="225.621693" fill="#3987e5" opacity=".8" r="4.5"/><path d="m132 120 136 102.443444" opacity=".5" stroke="#3a465c"/><circle cx="268" cy="222.443444" fill="#3987e5" opacity=".8" r="4.5"/><path d="m132 120 152 88.709692" opacity=".5" stroke="#3a465c"/><circle cx="284" cy="208.709692" fill="#3987e5" opacity=".8" r="4.5"/><path d="m132 120 168 70.879636" opacity=".5" stroke="#3a465c"/><circle cx="300" cy="190.879636" fill="#3987e5" opacity=".8" r="4.5"/><path d="m132 120 184 57.33903" opacity=".5" stroke="#3a465c"/><circle cx="316" cy="177.33903" fill="#3987e5" opacity=".8" r="4.5"/><path d="m132 120 200 54.456232" opacity=".5" stroke="#3a465c"/><circle cx="332" cy="174.456232" fill="#3987e5" opacity=".8" r="4.5"/><path d="m132 120 216 63.587067" opacity=".5" stroke="#3a465c"/><circle cx="348" cy="183.587067" fill="#3987e5" opacity=".8" r="4.5"/><path d="m132 120 232 80.437161" opacity=".5" stroke="#3a465c"/><circle cx="364" cy="200.437161" fill="#3987e5" opacity=".8" r="4.5"/><path d="m132 120 248 97.081652" opacity=".5" stroke="#3a465c"/><circle cx="380" cy="217.081652" fill="#3987e5" opacity=".8" r="4.5"/><path d="m132 120 264 105.692374" opacity=".5" stroke="#3a465c"/><circle cx="396" cy="225.692374" fill="#3987e5" opacity=".8" r="4.5"/><path d="m132 120 280 102.219572" opacity=".5" stroke="#3a465c"/><circle cx="412" cy="222.219572" fill="#3987e5" opacity=".8" r="4.5"/><path d="m132 120 296 88.296557" opacity=".5" stroke="#3a465c"/><circle cx="428" cy="208.296557" fill="#3987e5" opacity=".8" r="4.5"/><path d="m132 120 312 70.471543" opacity=".5" stroke="#3a465c"/><circle cx="444" cy="190.471543" fill="#3987e5" opacity=".8" r="4.5"/><path d="m132 120 328 57.12791" opacity=".5" stroke="#3a465c"/><circle cx="460" cy="177.12791" fill="#3987e5" opacity=".8" r="4.5"/><path d="m132 120 344 54.541379" opacity=".5" stroke="#3a465c"/><circle cx="476" cy="174.541379" fill="#3987e5" opacity=".8" r="4.5"/><path d="m132 120 360 63.928435" opacity=".5" stroke="#3a465c"/><circle cx="492" cy="183.928435" fill="#3987e5" opacity=".8" r="4.5"/><path d="m132 120 376 80.874199" opacity=".5" stroke="#3a465c"/><circle cx="508" cy="200.874199" fill="#3987e5" opacity=".8" r="4.5"/><path d="m132 120 392 97.408814" opacity=".5" stroke="#3a465c"/><circle cx="524" cy="217.408814" fill="#3987e5" opacity=".8" r="4.5"/><path d="m132 120 408 105.755791" opacity=".5" stroke="#3a465c"/><circle cx="540" cy="225.755791" fill="#3987e5" opacity=".8" r="4.5"/><path d="m132 120 424 101.989418" opacity=".5" stroke="#3a465c"/><circle cx="556" cy="221.989418" fill="#3987e5" opacity=".8" r="4.5"/><path d="m132 120 440 87.881077" opacity=".5" stroke="#3a465c"/><circle cx="572" cy="207.881077" fill="#3987e5" opacity=".8" r="4.5"/><path d="m132 120 456 70.066143" opacity=".5" stroke="#3a465c"/><circle cx="588" cy="190.066143" fill="#3987e5" opacity=".8" r="4.5"/><path d="m132 120 472 56.923257" opacity=".5" stroke="#3a465c"/><circle cx="604" cy="176.923257" fill="#3987e5" opacity=".8" r="4.5"/><path d="m132 120 488 54.633724" opacity=".5" stroke="#3a465c"/><circle cx="620" cy="174.633724" fill="#3987e5" opacity=".8" r="4.5"/><path d="m132 120 504 64.274347" opacity=".5" stroke="#3a465c"/><circle cx="636" cy="184.274347" fill="#3987e5" opacity=".8" r="4.5"/><path d="m132 120 520 81.31099" opacity=".5" stroke="#3a465c"/><circle cx="652" cy="201.31099" fill="#3987e5" opacity=".8" r="4.5"/><path d="m132 120 536 97.731054" opacity=".5" stroke="#3a465c"/><circle cx="668" cy="217.731054" fill="#3987e5" opacity=".8" r="4.5"/><path d="m132 120 552 105.811927" opacity=".5" stroke="#3a465c"/><circle cx="684" cy="225.811927" fill="#3987e5" opacity=".8" r="4.5"/><path d="m132 120 568 101.753047" opacity=".5" stroke="#3a465c"/><circle cx="700" cy="221.753047" fill="#3987e5" opacity=".8" r="4.5"/><path d="m132 120 584 87.463369" opacity=".5" stroke="#3a465c"/><circle cx="716" cy="207.463369" fill="#3987e5" opacity=".8" r="4.5"/><path d="m132 120 600 69.663552" opacity=".5" stroke="#3a465c"/><circle cx="732" cy="189.663552" fill="#3987e5" opacity=".8" r="4.5"/><path d="m132 120 616 56.725128" opacity=".5" stroke="#3a465c"/><circle cx="748" cy="176.725128" fill="#3987e5" opacity=".8" r="4.5"/><path d="m132 120 632 54.73324" opacity=".5" stroke="#3a465c"/><circle cx="764" cy="174.73324" fill="#3987e5" opacity=".8" r="4.5"/><path d="m132 120 648 64.624704" opacity=".5" stroke="#3a465c"/><circle cx="780" cy="184.624704" fill="#3987e5" opacity=".8" r="4.5"/><path d="m132 120 664 81.74741" opacity=".5" stroke="#3a465c"/><circle cx="796" cy="201.74741" fill="#3987e5" opacity=".8" r="4.5"/><path d="m132 120 680 98.048281" opacity=".5" stroke="#3a465c"/><circle cx="812" cy="218.048281" fill="#3987e5" opacity=".8" r="4.5"/><path d="m132 120 696 105.860764" opacity=".5" stroke="#3a465c"/><circle cx="828" cy="225.860764" fill="#3987e5" opacity=".8" r="4.5"/><path d="m132 120 712 101.510525" opacity=".5" stroke="#3a465c"/><circle cx="844" cy="221.510525" fill="#3987e5" opacity=".8" r="4.5"/><path d="m220 250q230 50 470 0" fill="none" opacity=".5" stroke="#3987e5" stroke-width="1.5"/><circle cx="780" cy="276" fill="#199e70" r="16" visibility="hidden"/><text fill="#199e70" font-family="ui-sans-serif,-apple-system,BlinkMacSystemFont,'Segoe UI',Roboto,'Helvetica Neue',sans-serif" font-size="14" font-weight="700" text-anchor="middle" x="780" y="314">you conclude</text><g filter="url(#b)"><rect fill="#199e70" height="26" rx="13" width="161" x="300" y="268"/><text fill="#fff" font-family="ui-sans-serif,-apple-system,BlinkMacSystemFont,'Segoe UI',Roboto,'Helvetica Neue',sans-serif" font-size="12.5" font-weight="600" text-anchor="middle" x="380.5" y="285.5">FOUND src/fees.ts:88</text></g><g filter="url(#b)"><rect fill="#61708a" height="26" rx="13" width="64.8" x="520" y="268"/><text fill="#fff" font-family="ui-sans-serif,-apple-system,BlinkMacSystemFont,'Segoe UI',Roboto,'Helvetica Neue',sans-serif" font-size="12.5" font-weight="600" text-anchor="middle" x="552.4" y="285.5">CHECKED</text></g><g filter="url(#b)"><rect fill="#d95926" height="26" rx="13" width="57.4" x="640" y="268"/><text fill="#fff" font-family="ui-sans-serif,-apple-system,BlinkMacSystemFont,'Segoe UI',Roboto,'Helvetica Neue',sans-serif" font-size="12.5" font-weight="600" text-anchor="middle" x="668.7" y="285.5">MISSED</text></g><text fill="#61708a" font-family="ui-sans-serif,-apple-system,BlinkMacSystemFont,'Segoe UI',Roboto,'Helvetica Neue',sans-serif" font-size="12.5" x="700" y="104">SERIAL (the alternative)</text><circle cx="700" cy="120" fill="#d95926" opacity=".6" r="3"/><path d="m700 120h14" opacity=".5" stroke="#d95926" stroke-width="1.25"/><circle cx="714" cy="120" fill="#d95926" opacity=".6" r="3"/><path d="m714 120h14" opacity=".5" stroke="#d95926" stroke-width="1.25"/><circle cx="728" cy="120" fill="#d95926" opacity=".6" r="3"/><path d="m728 120h14" opacity=".5" stroke="#d95926" stroke-width="1.25"/><circle cx="742" cy="120" fill="#d95926" opacity=".6" r="3"/><path d="m742 120h14" opacity=".5" stroke="#d95926" stroke-width="1.25"/><circle cx="756" cy="120" fill="#d95926" opacity=".6" r="3"/><path d="m756 120h14" opacity=".5" stroke="#d95926" stroke-width="1.25"/><circle cx="770" cy="120" fill="#d95926" opacity=".6" r="3"/><path d="m770 120h14" opacity=".5" stroke="#d95926" stroke-width="1.25"/><circle cx="784" cy="120" fill="#d95926" opacity=".6" r="3"/><path d="m784 120h14" opacity=".5" stroke="#d95926" stroke-width="1.25"/><circle cx="798" cy="120" fill="#d95926" opacity=".6" r="3"/><path d="m798 120h14" opacity=".5" stroke="#d95926" stroke-width="1.25"/><circle cx="812" cy="120" fill="#d95926" opacity=".6" r="3"/><path d="m812 120h14" opacity=".5" stroke="#d95926" stroke-width="1.25"/><circle cx="826" cy="120" fill="#d95926" opacity=".6" r="3"/><path d="m826 120h14" opacity=".5" stroke="#d95926" stroke-width="1.25"/><circle cx="840" cy="120" fill="#d95926" opacity=".6" r="3"/><path d="m840 120h14" opacity=".5" stroke="#d95926" stroke-width="1.25"/><circle cx="854" cy="120" fill="#d95926" opacity=".6" r="3"/><text fill="#61708a" font-family="ui-sans-serif,-apple-system,BlinkMacSystemFont,'Segoe UI',Roboto,'Helvetica Neue',sans-serif" font-size="12.5" x="700" y="142">one agent, forty reads</text></svg>