<svg xmlns="http://www.w3.org/2000/svg" viewBox="0 0 900 256" width="900" height="256" role="img" aria-label="Docs, README, comments and the agent's own guess conflict; the numbered north-star wins and the others are declared stale.">
<defs>
  <marker id="ar" viewBox="0 0 10 10" refX="8.5" refY="5" markerWidth="5.5" markerHeight="5.5" orient="auto-start-reverse">
    <path d="M0 0 L10 5 L0 10 z" fill="#3a465c"/>
  </marker>
</defs>
<rect width="900" height="256" rx="14" fill="#11161f" stroke="#232c3b"/>
<text x="28" y="34" font-family="ui-sans-serif,-apple-system,BlinkMacSystemFont,'Segoe UI',Roboto,'Helvetica Neue',sans-serif" font-size="11.5" font-weight="600" letter-spacing="1.6" fill="#61708a">FOUR SOURCES, ONE ANSWER</text>
<text x="28" y="60" font-family="ui-sans-serif,-apple-system,BlinkMacSystemFont,'Segoe UI',Roboto,'Helvetica Neue',sans-serif" font-size="19" font-weight="650" fill="#e8edf5">Something has to outrank the rest.</text>
<rect x="28" y="88" width="232" height="32" rx="10" fill="#1a2130" stroke="#2c3648"/>
<text x="44" y="109" font-family="ui-sans-serif,-apple-system,BlinkMacSystemFont,'Segoe UI',Roboto,'Helvetica Neue',sans-serif" font-size="14.5" font-weight="600" fill="#9aa8bd">A doc from March</text>
<rect x="28" y="126" width="232" height="32" rx="10" fill="#1a2130" stroke="#2c3648"/>
<text x="44" y="147" font-family="ui-sans-serif,-apple-system,BlinkMacSystemFont,'Segoe UI',Roboto,'Helvetica Neue',sans-serif" font-size="14.5" font-weight="600" fill="#9aa8bd">The README</text>
<rect x="28" y="164" width="232" height="32" rx="10" fill="#1a2130" stroke="#2c3648"/>
<text x="44" y="185" font-family="ui-sans-serif,-apple-system,BlinkMacSystemFont,'Segoe UI',Roboto,'Helvetica Neue',sans-serif" font-size="14.5" font-weight="600" fill="#9aa8bd">A code comment</text>
<rect x="28" y="202" width="232" height="32" rx="10" fill="#1a2130" stroke="#2c3648"/>
<text x="44" y="223" font-family="ui-sans-serif,-apple-system,BlinkMacSystemFont,'Segoe UI',Roboto,'Helvetica Neue',sans-serif" font-size="14.5" font-weight="600" fill="#9aa8bd">The agent's own guess</text>
<path d="M260 104 H316 V158 H372" fill="none" stroke="#3a465c" stroke-width="1.75" marker-end="url(#ar)"/>
<path d="M260 142 H316 V158 H372" fill="none" stroke="#3a465c" stroke-width="1.75" marker-end="url(#ar)"/>
<path d="M260 180 H316 V158 H372" fill="none" stroke="#3a465c" stroke-width="1.75" marker-end="url(#ar)"/>
<path d="M260 218 H316 V158 H372" fill="none" stroke="#3a465c" stroke-width="1.75" marker-end="url(#ar)"/>
<rect x="372" y="132" width="214" height="52" rx="10" fill="#1a2130" stroke="#2c3648"/>
<path d="M373 143 a10 10 0 0 1 10 -10 h2 v50 h-2 a10 10 0 0 1 -10 -10 z" fill="#d95926"/>
<text x="392" y="154" font-family="ui-monospace,SFMono-Regular,Menlo,Consolas,monospace" font-size="13" font-weight="600" fill="#e8edf5">CONFLICT</text>
<text x="392" y="173" font-family="ui-sans-serif,-apple-system,BlinkMacSystemFont,'Segoe UI',Roboto,'Helvetica Neue',sans-serif" font-size="12.5" fill="#9aa8bd">which one is true?</text>
<line x1="586" y1="158" x2="630" y2="158" stroke="#3a465c" stroke-width="1.75" marker-end="url(#ar)"/>
<rect x="630" y="120" width="242" height="76" rx="10" fill="#1a2130" stroke="#2c3648"/>
<path d="M631 131 a10 10 0 0 1 10 -10 h2 v74 h-2 a10 10 0 0 1 -10 -10 z" fill="#3987e5"/>
<text x="650" y="154" font-family="ui-sans-serif,-apple-system,BlinkMacSystemFont,'Segoe UI',Roboto,'Helvetica Neue',sans-serif" font-size="14.5" font-weight="600" fill="#e8edf5">NS-4 wins</text>
<text x="650" y="173" font-family="ui-sans-serif,-apple-system,BlinkMacSystemFont,'Segoe UI',Roboto,'Helvetica Neue',sans-serif" font-size="12.5" fill="#9aa8bd">the others are stale</text>
<text x="28" y="232" text-anchor="start" font-family="ui-sans-serif,-apple-system,BlinkMacSystemFont,'Segoe UI',Roboto,'Helvetica Neue',sans-serif" font-size="12.5" fill="#61708a">The agent must CITE it for any load-bearing claim — and may never edit it silently.</text>
</svg>
