<svg height="238" viewBox="0 0 900 238" width="900" xmlns="http://www.w3.org/2000/svg" xmlns:xlink="http://www.w3.org/1999/xlink"><marker id="a" markerHeight="5.5" markerWidth="5.5" orient="auto-start-reverse" refX="8.5" refY="5" viewBox="0 0 10 10"><path d="m0 0 10 5-10 5z" fill="#3a465c"/></marker><radialGradient id="b" cx="100%" cy="0%" r="120%"><stop offset="0" stop-color="#161c27"/><stop offset=".55" stop-color="#11161f"/></radialGradient><linearGradient id="c" x1="0" x2="0" y1="0" y2="1"><stop offset="0" stop-color="#1d2533"/><stop offset="1" stop-color="#1a2130"/></linearGradient><filter id="d" height="140%" width="140%" x="-20%" y="-20%"><feGaussianBlur in="SourceAlpha" stdDeviation="4"/><feOffset dx="0" dy="6" result="off"/><feComponentTransfer><feFuncA slope="0.55" type="linear"/></feComponentTransfer><feMerge><feMergeNode/><feMergeNode in="SourceGraphic"/></feMerge></filter><rect fill="url(#b)" height="238" rx="14" stroke="#232c3b" width="900"/><text fill="#61708a" font-family="ui-sans-serif,-apple-system,BlinkMacSystemFont,'Segoe UI',Roboto,'Helvetica Neue',sans-serif" font-size="11.5" font-weight="600" letter-spacing="1.6" x="28" y="34">LONG SESSION · CONTEXT FILLING</text><text fill="#e8edf5" font-family="ui-sans-serif,-apple-system,BlinkMacSystemFont,'Segoe UI',Roboto,'Helvetica Neue',sans-serif" font-size="21" font-weight="700" x="28" y="60">The detail is written down before it's lost.</text><path d="m28 150h844" stroke="#3a465c" stroke-dasharray="3 4" stroke-width="1.5"/><rect fill="url(#c)" filter="url(#d)" height="62" rx="10" stroke="#2c3648" width="176" x="28" y="118"/><path d="m29 129a10 10 0 0 1 10-10h2v60h-2a10 10 0 0 1 -10-10z" fill="#61708a"/><text fill="#e8edf5" font-family="ui-sans-serif,-apple-system,BlinkMacSystemFont,'Segoe UI',Roboto,'Helvetica Neue',sans-serif" font-size="15" font-weight="600" x="48" y="145">~90% full</text><text fill="#9aa8bd" font-family="ui-sans-serif,-apple-system,BlinkMacSystemFont,'Segoe UI',Roboto,'Helvetica Neue',sans-serif" font-size="12.5" x="48" y="164">pressure detected</text><rect fill="url(#c)" filter="url(#d)" height="82" rx="10" stroke="#2c3648" width="226" x="232" y="108"/><path d="m233 119a10 10 0 0 1 10-10h2v80h-2a10 10 0 0 1 -10-10z" fill="#3987e5"/><g font-family="ui-sans-serif,-apple-system,BlinkMacSystemFont,'Segoe UI',Roboto,'Helvetica Neue',sans-serif"><text fill="#e8edf5" font-size="15" font-weight="600" x="252" y="145">TASK-CORE written</text><text fill="#9aa8bd" font-size="12.5" x="252" y="164">goal · decisions · gotchas</text><text fill="#3987e5" font-size="12.5" x="232" y="206">before the summary, not after</text></g><rect fill="url(#c)" filter="url(#d)" height="62" rx="10" stroke="#2c3648" width="168" x="486" y="118"/><path d="m487 129a10 10 0 0 1 10-10h2v60h-2a10 10 0 0 1 -10-10z" fill="#d95926"/><text fill="#e8edf5" font-family="ui-monospace,SFMono-Regular,Menlo,Consolas,monospace" font-size="13" font-weight="600" x="506" y="145">COMPACTION</text><text fill="#9aa8bd" font-family="ui-sans-serif,-apple-system,BlinkMacSystemFont,'Segoe UI',Roboto,'Helvetica Neue',sans-serif" font-size="12.5" x="506" y="164">transcript dropped</text><rect fill="url(#c)" filter="url(#d)" height="82" rx="10" stroke="#2c3648" width="190" x="682" y="108"/><path d="m683 119a10 10 0 0 1 10-10h2v80h-2a10 10 0 0 1 -10-10z" fill="#199e70"/><text fill="#e8edf5" font-family="ui-sans-serif,-apple-system,BlinkMacSystemFont,'Segoe UI',Roboto,'Helvetica Neue',sans-serif" font-size="15" font-weight="600" x="702" y="145">Read back</text><text fill="#9aa8bd" font-family="ui-sans-serif,-apple-system,BlinkMacSystemFont,'Segoe UI',Roboto,'Helvetica Neue',sans-serif" font-size="12.5" x="702" y="164">goal intact</text><path d="m204 150h28" marker-end="url(#a)" stroke="#3a465c" stroke-width="1.75"/><path d="m458 150h28" marker-end="url(#a)" stroke="#3a465c" stroke-width="1.75"/><path d="m654 150h28" marker-end="url(#a)" stroke="#3a465c" stroke-width="1.75"/></svg>